{"title":"Spy Kids 4 2011 TS x264 Feel-Free","uid":6622496,"size":1057245037,"categoryP":"video","categoryS":"movies","magnet":"?xt=urn:btih:ac5800ddb8544bccc858ee28f735344db44f4753&amp;dn=Spy+Kids+4+2011+TS+x264+Feel-Free&amp;tr=udp%3A%2F%2Ftracker.openbittorrent.com%3A80&amp;tr=udp%3A%2F%2Fopen.demonii.com%3A1337&amp;tr=udp%3A%2F%2Ftracker.coppersurfer.tk%3A6969&amp;tr=udp%3A%2F%2Fexodus.desync.com%3A6969","seeders":1,"leechers":0,"uploader":"SnowCrash03","files":-1,"time":1314046717,"description":"Genre: Action | Adventure | Comedy\n Language: English\n IMDb :http://www.imdb.com/title/tt1517489/\n Source: Russian/Choice Thanks!\n \nFormat : MPEG-4\n Format profile : Base Media\n Codec ID : isom\n File size : 1 007 MiB\n Duration : 1h 21mn\n Overall bit rate : 1 720 Kbps\n \nVideo\n ID : 1\n Format : AVC\n Format/Info : Advanced Video Codec\n Format profile : &lt;a class=&quot;__cf_email__&quot; href=&quot;/cdn-cgi/l/email-protection&quot; data-cfemail=&quot;7830111f1038344c5649&quot;&gt;[email&amp;#160;protected]&lt;/a&gt;&lt;script cf-hash='f9e31' type=&quot;text/javascript&quot;&gt;\n/* &lt;![CDATA[ */!function(){try{var t=&quot;currentScript&quot;in document?document.currentScript:function(){for(var t=document.getElementsByTagName(&quot;script&quot;),e=t.length;e--;)if(t[e].getAttribute(&quot;cf-hash&quot;))return t[e]}();if(t&amp;&amp;t.previousSibling){var e,r,n,i,c=t.previousSibling,a=c.getAttribute(&quot;data-cfemail&quot;);if(a){for(e=&quot;&quot;,r=parseInt(a.substr(0,2),16),n=2;a.length-n;n+=2)i=parseInt(a.substr(n,2),16)^r,e+=String.fromCharCode(i);e=document.createTextNode(e),c.parentNode.replaceChild(e,c)}}}catch(u){}}();/* ]]&gt; */&lt;/script&gt;\n Format settings, CABAC : Yes\n Format settings, ReFrames : 3 frames\n Codec ID : avc1\n Codec ID/Info : Advanced Video Coding\n Duration : 1h 21mn\n Bit rate mode : Variable\n Bit rate : 1 500 Kbps\n Maximum bit rate : 7 127 Kbps\n Width : 720 pixels\n Height : 384 pixels\n Display aspect ratio : 1.875\n Frame rate mode : Constant\n Frame rate : 25.000 fps\n Color space : YUV\n Chroma subsampling : 4:2:0\n Bit depth : 8 bits\n Scan type : Progressive\n Bits/(Pixel*Frame) : 0.217\n Stream size : 874 MiB (87%)\n Writing library : x264\n \nAudio\n ID : 2\n Format : AAC\n Format/Info : Advanced Audio Codec\n Format version : Version 4\n Format profile : LC\n Format settings, SBR : No\n Codec ID : 40\n Duration : 1h 21mn\n Bit rate mode : Variable\n Bit rate : 224 Kbps\n Maximum bit rate : 259 Kbps\n Channel(s) : 2 channels\n Channel positions : Front: L R\n Sampling rate : 44.1 KHz\n Stream size : 131 MiB (13%)\n \n\nPlot:\n A retired spy is called back into action, and to bond with her new step-children, she invites them along for the adventure to stop the evil Timekeeper from taking over the world.","torrent":{"xt":"urn:btih:ac5800ddb8544bccc858ee28f735344db44f4753","amp;dn":"Spy+Kids+4+2011+TS+x264+Feel-Free","amp;tr":["udp%3A%2F%2Ftracker.openbittorrent.com%3A80","udp%3A%2F%2Fopen.demonii.com%3A1337","udp%3A%2F%2Ftracker.coppersurfer.tk%3A6969","udp%3A%2F%2Fexodus.desync.com%3A6969"],"infoHash":"ac5800ddb8544bccc858ee28f735344db44f4753","infoHashBuffer":{"type":"Buffer","data":[172,88,0,221,184,84,75,204,200,88,238,40,247,53,52,77,180,79,71,83]},"announce":[],"urlList":[]}}